<?xml version="1.0" encoding="UTF-8"?>
<svg width="69px" height="65px" viewBox="0 0 69 65" version="1.1" xmlns="http://www.w3.org/2000/svg" xmlns:xlink="http://www.w3.org/1999/xlink">
    <!-- Generator: Sketch 49.3 (51167) - http://www.bohemiancoding.com/sketch -->
    <title>Page 1</title>
    <desc>Created with Sketch.</desc>
    <defs></defs>
    <g id="Page-1" stroke="none" stroke-width="1" fill="none" fill-rule="evenodd">
        <g id="Desktop-HD-Copy" transform="translate(-670.000000, -1472.000000)" fill="#0A8A93">
            <g id="Group-12" transform="translate(0.000000, 1371.000000)">
                <g id="Group-11" transform="translate(670.000000, 101.000000)">
                    <g id="Page-1">
                        <path d="M66.4606742,43.8202247 L2.19101124,43.8202247 L2.19101124,5.47752809 C2.19101124,3.66541573 3.66526966,2.19101124 5.47752809,2.19101124 L63.1741573,2.19101124 C64.9864157,2.19101124 66.4606742,3.66541573 66.4606742,5.47752809 L66.4606742,43.8202247 Z M66.4606742,49.2977528 C66.4606742,51.1098652 64.9864157,52.5842697 63.1741573,52.5842697 L5.47752809,52.5842697 C3.66526966,52.5842697 2.19101124,51.1098652 2.19101124,49.2977528 L2.19101124,46.011236 L66.4606742,46.011236 L66.4606742,49.2977528 Z M28.8483146,62.8089888 L39.8033708,62.8089888 L39.8033708,54.7752809 L28.8483146,54.7752809 L28.8483146,62.8089888 Z M63.1741573,0 L5.47752809,0 C2.45714607,0 0,2.45729213 0,5.47752809 L0,49.2977528 C0,52.3179888 2.45714607,54.7752809 5.47752809,54.7752809 L26.6573034,54.7752809 L26.6573034,62.8089888 L18.988764,62.8089888 C18.3837528,62.8089888 17.8932584,63.2994831 17.8932584,63.9044944 C17.8932584,64.5095056 18.3837528,65 18.988764,65 L49.6629213,65 C50.2679326,65 50.758427,64.5095056 50.758427,63.9044944 C50.758427,63.2994831 50.2679326,62.8089888 49.6629213,62.8089888 L41.994382,62.8089888 L41.994382,54.7752809 L63.1741573,54.7752809 C66.1945393,54.7752809 68.6516854,52.3179888 68.6516854,49.2977528 L68.6516854,5.47752809 C68.6516854,2.45729213 66.1945393,0 63.1741573,0 Z" id="Fill-1"></path>
                        <path d="M63.1741573,4.38202247 L5.47752809,4.38202247 C4.87251685,4.38202247 4.38202247,4.87251685 4.38202247,5.47752809 L4.38202247,40.5337079 C4.38202247,41.1387191 4.87251685,41.6292135 5.47752809,41.6292135 L52.9494382,41.6292135 C53.5544494,41.6292135 54.0449438,41.1387191 54.0449438,40.5337079 C54.0449438,39.9286966 53.5544494,39.4382022 52.9494382,39.4382022 L6.57303371,39.4382022 L6.57303371,6.57303371 L62.0786517,6.57303371 L62.0786517,39.4382022 L57.3314607,39.4382022 C56.7264494,39.4382022 56.2359551,39.9286966 56.2359551,40.5337079 C56.2359551,41.1387191 56.7264494,41.6292135 57.3314607,41.6292135 L63.1741573,41.6292135 C63.7791685,41.6292135 64.2696629,41.1387191 64.2696629,40.5337079 L64.2696629,5.47752809 C64.2696629,4.87251685 63.7791685,4.38202247 63.1741573,4.38202247" id="Fill-3"></path>
                    </g>
                </g>
            </g>
        </g>
    </g>
</svg>