<?xml version="1.0" encoding="UTF-8"?>
<svg width="69px" height="65px" viewBox="0 0 69 65" version="1.1" xmlns="http://www.w3.org/2000/svg" xmlns:xlink="http://www.w3.org/1999/xlink">
    <!-- Generator: Sketch 49.3 (51167) - http://www.bohemiancoding.com/sketch -->
    <title>Page 1</title>
    <desc>Created with Sketch.</desc>
    <defs>
        <polygon id="path-1" points="0 0.0146216495 68.9997305 0.0146216495 68.9997305 64.8659794 0 64.8659794"></polygon>
    </defs>
    <g id="Page-1" stroke="none" stroke-width="1" fill="none" fill-rule="evenodd">
        <g id="Desktop-HD-Copy" transform="translate(-150.000000, -2140.000000)">
            <g id="Group-16" transform="translate(150.000000, 2079.000000)">
                <g id="Page-1" transform="translate(0.000000, 61.000000)">
                    <g id="Group-3" transform="translate(0.000000, 0.119412)">
                        <mask id="mask-2" fill="white">
                            <use xlink:href="#path-1"></use>
                        </mask>
                        <g id="Clip-2"></g>
                        <path d="M60.1337695,60.9362402 C60.1337695,61.8715701 59.3684355,62.6329412 58.427502,62.6329412 L42.077332,62.6329412 C41.1365332,62.6329412 40.3711992,61.8717041 40.3711992,60.9362402 L40.3711992,58.0174052 L60.1337695,58.0174052 L60.1337695,60.9362402 Z M40.3709297,29.7874361 C40.3710645,28.8518381 41.1363984,28.0907351 42.0771973,28.0907351 L58.4273672,28.0907351 C59.368166,28.0907351 60.1335,28.8518381 60.1335,29.7874361 L60.1335,55.7840856 L40.3709297,55.7840856 L40.3709297,29.7874361 Z M63.5069531,0.0146216495 L5.49156445,0.0146216495 C2.46365039,0.0146216495 0,2.46425052 0,5.47582784 L0,13.4130649 C0,14.0298278 0.502810547,14.5297247 1.12286719,14.5297247 C1.74305859,14.5297247 2.24573438,14.0296938 2.24573438,13.4130649 L2.24573438,5.47582784 C2.24573438,3.6959 3.70187695,2.24794124 5.49156445,2.24794124 L63.5068184,2.24794124 C65.2974492,2.24794124 66.7541309,3.69603402 66.7541309,5.47582784 L66.7541309,43.5929 L62.3793691,43.5929 L62.3793691,29.7874361 C62.3793691,27.6203227 60.6065273,25.8574155 58.427502,25.8574155 L42.077332,25.8574155 C39.8981719,25.8574155 38.1254648,27.6204567 38.1254648,29.7874361 L38.1254648,51.1015392 L5.49156445,51.1015392 C3.70187695,51.1015392 2.24573438,49.6533124 2.24573438,47.8736526 L2.24573438,45.8264876 L35.5053516,45.8264876 C36.125543,45.8264876 36.6282187,45.3264567 36.6282187,44.7098278 C36.6282187,44.0930649 36.1254082,43.593168 35.5053516,43.593168 L2.24573438,43.593168 L2.24573438,17.1353536 C2.24573438,16.5185907 1.74292383,16.0186938 1.12286719,16.0186938 C0.502810547,16.0186938 0,16.5187247 0,17.1353536 L0,47.8735186 C0,50.8849619 2.46365039,53.3347247 5.49156445,53.3347247 L24.7343438,53.3347247 L21.9723223,59.7607454 L16.5780586,59.7607454 C15.9578672,59.7607454 15.4551914,60.2607763 15.4551914,60.8774052 C15.4551914,61.494168 15.958002,61.9940649 16.5780586,61.9940649 L22.7133984,61.9940649 L35.2273301,61.9940649 L35.3769199,61.9940649 C35.9971113,61.9940649 36.4997871,61.494034 36.4997871,60.8774052 C36.4997871,60.2606423 35.9969766,59.7607454 35.3769199,59.7607454 L35.2273301,59.7607454 L24.4145449,59.7607454 L26.3337422,55.2955804 L38.1253301,55.2955804 L38.1253301,60.9359722 C38.1253301,63.1030856 39.8981719,64.8659928 42.0771973,64.8659928 L58.4273672,64.8659928 C60.6065273,64.8659928 62.3792344,63.1029515 62.3792344,60.9359722 L62.3792344,45.8262196 L66.7539961,45.8262196 L66.7539961,47.8733845 C66.7539961,49.1735186 65.9753203,50.3411062 64.7702461,50.8481062 C64.1991094,51.0884052 63.9318691,51.7434979 64.1735039,52.3114773 C64.3546289,52.7376629 64.7705156,52.9935082 65.2082344,52.9935082 C65.3540508,52.9935082 65.5024277,52.9649619 65.6451445,52.9050546 C67.6829355,52.0478588 68.9997305,50.0729309 68.9997305,47.8735186 L68.9997305,5.47582784 C69,2.46425052 66.5358105,0.0146216495 63.5069531,0.0146216495 Z" id="Fill-1" fill="#0A8A93" mask="url(#mask-2)"></path>
                    </g>
                    <path d="M35.4330902,47.6980856 C34.8959145,46.8873948 33.5858578,47.1455186 33.3983988,48.1001474 C33.3078363,48.5610443 33.5241352,49.0440546 33.9323402,49.2810031 C34.3400063,49.5175495 34.8701742,49.4718485 35.2289203,49.1664155 C35.657475,48.8016113 35.7425121,48.1652814 35.4330902,47.6980856" id="Fill-4" fill="#0A8A93"></path>
                    <path d="M51.2896406,60.0171134 C51.1112109,59.5965567 50.6860254,59.3167216 50.2248574,59.3285155 C49.7650371,59.3401753 49.3511719,59.6379691 49.1961914,60.0681753 C49.0381113,60.5073608 49.1781328,61.0108763 49.5403828,61.3073299 C49.917457,61.6161134 50.4685137,61.6415773 50.8749668,61.3735361 C51.3186152,61.0808351 51.4862637,60.5053505 51.2896406,60.0171134" id="Fill-6" fill="#0A8A93"></path>
                    <path d="M53.3216502,29.5500722 L47.1832107,29.5500722 C46.5630193,29.5500722 46.0603436,30.0501031 46.0603436,30.666732 C46.0603436,31.2834948 46.5631541,31.7833918 47.1832107,31.7833918 L53.3216502,31.7833918 C53.9418416,31.7833918 54.4445174,31.2833608 54.4445174,30.666732 C54.4445174,30.0499691 53.9418416,29.5500722 53.3216502,29.5500722" id="Fill-8" fill="#0A8A93"></path>
                </g>
            </g>
        </g>
    </g>
</svg>