<?xml version="1.0" encoding="UTF-8"?>
<svg width="89px" height="64px" viewBox="0 0 89 64" version="1.1" xmlns="http://www.w3.org/2000/svg" xmlns:xlink="http://www.w3.org/1999/xlink">
    <!-- Generator: Sketch 49.3 (51167) - http://www.bohemiancoding.com/sketch -->
    <title>Page 1</title>
    <desc>Created with Sketch.</desc>
    <defs></defs>
    <g id="Page-1" stroke="none" stroke-width="1" fill="none" fill-rule="evenodd">
        <g id="Desktop-HD-Copy" transform="translate(-676.000000, -2141.000000)" fill="#0A8A93">
            <g id="Group-16" transform="translate(150.000000, 2079.000000)">
                <g id="Page-1" transform="translate(526.000000, 62.000000)">
                    <path d="M64.7210378,36.7860584 L54.1804108,26.3850205 C54.1804108,26.3848476 54.1800649,26.3846746 54.1800649,26.3845016 L54.1646703,26.36928 C53.7754811,25.98528 53.2503351,25.8242422 52.7462919,25.8837449 L45.2150486,25.8012368 C44.7480216,25.7977773 44.3017514,25.97888 43.9725838,26.3077016 L37.6647784,32.615853 C37.2740324,33.0064259 36.7545946,33.2216043 36.2022919,33.2216043 C35.6499892,33.2216043 35.1305514,33.0064259 34.7398054,32.615853 C34.3490595,32.22528 34.1340541,31.7056692 34.1340541,31.1533665 C34.1340541,30.6008908 34.3490595,30.081453 34.7398054,29.6905341 L44.0168649,20.4136476 L52.3915243,20.4136476 C52.8504216,20.4136476 53.2904649,20.2311611 53.6149622,19.9068368 L55.9203459,17.60128 L70.1451243,31.8262314 L64.7210378,36.7860584 Z M63.4706162,43.515053 C63.0563459,43.9293232 62.5059459,44.1571286 61.9202595,44.1571286 C61.334573,44.1571286 60.784173,43.9293232 60.3699027,43.5152259 L56.7751784,39.9203286 C56.0995459,39.2448692 55.0042811,39.2448692 54.3279568,39.9203286 C53.6523243,40.5959611 53.6523243,41.6915719 54.3279568,42.3675503 L57.9225081,45.9622746 C57.9226811,45.9622746 57.9228541,45.9624476 57.9228541,45.9624476 L57.9337514,45.9731719 C58.825773,46.8651935 58.8562162,48.2915286 58.0031135,49.2207395 C57.5744865,49.6877665 56.9896649,49.9570854 56.3560649,49.979053 C55.7238486,50.0024043 55.120173,49.7737341 54.6600649,49.3378422 L51.1987027,46.0615611 C50.5047351,45.4044368 49.4094703,45.4345341 48.7525189,46.1286746 C48.0955676,46.8224692 48.1254919,47.9175611 48.8194595,48.5746854 L52.5880216,52.142253 C52.9611243,52.4954638 53.1704216,52.9730422 53.1775135,53.4867719 C53.1846054,54.0005016 52.9884541,54.4834422 52.6252108,54.8466854 C51.8899027,55.5823395 50.6925838,55.5821665 49.9572757,54.8466854 L48.2100757,53.0994854 C47.5342703,52.42368 46.4390054,52.42368 45.7628541,53.0994854 C45.4250378,53.4374746 45.2560432,53.8799395 45.2560432,54.3229232 C45.2560432,54.7655611 45.4250378,55.2087178 45.7628541,55.5463611 L47.5790703,57.3625773 C47.9170595,57.7003935 48.1031784,58.1497773 48.1031784,58.6275286 C48.1031784,59.105107 47.9170595,59.5546638 47.5790703,59.89248 C47.2410811,60.2304692 46.7918703,60.4162422 46.3141189,60.4162422 C45.8361946,60.4162422 45.3871568,60.2301232 45.0491676,59.892307 L42.9328432,57.7759827 C43.3735784,56.948653 43.6242162,56.0057773 43.6242162,55.0049557 C43.6242162,51.7513341 40.9829189,49.1034638 37.7318919,49.0915286 C37.7318919,49.0889341 37.7320649,49.0863395 37.7320649,49.0839178 C37.7320649,45.8226854 35.0790054,43.1696259 31.8179459,43.1696259 C31.8106811,43.1696259 31.8035892,43.1701449 31.7963243,43.1701449 L31.7963243,43.169107 C31.7963243,39.9082205 29.1432649,37.2553341 25.8822054,37.2553341 C24.8793081,37.2553341 23.9343568,37.5070097 23.1061622,37.9493016 L17.6981622,32.5414746 L32.9958919,17.2435719 L35.6595027,19.9071827 C35.984173,20.23168 36.4242162,20.4141665 36.8829405,20.4141665 L39.1225946,20.4141665 L32.2925838,27.2440043 C31.2483459,28.2884151 30.6733838,29.6768692 30.6733838,31.1537124 C30.6733838,32.6307286 31.2483459,34.0191827 32.2925838,35.0632476 C33.3368216,36.1076584 34.7254486,36.6826205 36.2022919,36.6826205 C37.6791351,36.6826205 39.0677622,36.1074854 40.112,35.0632476 L45.9050378,29.2700368 L52.2470919,29.3397449 L63.4600649,40.4041341 C63.8790054,40.8177124 64.1107892,41.3693232 64.1125189,41.9577773 C64.1149405,42.5457124 63.8867892,43.098707 63.4706162,43.515053 Z M39.4688865,56.7125449 C39.4609297,56.7201557 39.4524541,56.7267286 39.4446703,56.7345124 C39.4360216,56.7433341 39.4289297,56.7526746 39.420627,56.7611503 C38.9783351,57.1921989 38.3753514,57.4587503 37.7107892,57.4587503 C36.3576216,57.4584043 35.2569946,56.3576043 35.2569946,55.0047827 C35.2569946,54.3782746 35.4950054,53.8074638 35.8829838,53.3734746 C35.9533838,53.30688 36.0220541,53.2383827 36.0891676,53.1685016 C36.5219459,52.7858854 37.0887784,52.55168 37.7104432,52.55168 C39.0632649,52.55168 40.1640649,53.652307 40.1640649,55.0051286 C40.1640649,55.6688259 39.8983784,56.2705989 39.4688865,56.7125449 Z M33.6459243,50.71488 C33.5755243,50.7816476 33.5068541,50.8501449 33.4397405,50.9201989 C33.0067892,51.3028151 32.4401297,51.5370205 31.8184649,51.5370205 C30.4656432,51.5370205 29.3650162,50.4365665 29.3650162,49.0835719 C29.3650162,47.7304043 30.4654703,46.6297773 31.8184649,46.6297773 C33.1714595,46.6297773 34.2720865,47.7304043 34.2720865,49.0835719 C34.2719135,49.7104259 34.0337297,50.2810638 33.6459243,50.71488 Z M25.8827243,45.6225557 C24.5297297,45.6225557 23.4291027,44.5219286 23.4291027,43.1687611 C23.4291027,41.8159395 24.5297297,40.7154854 25.8827243,40.7154854 C27.2357189,40.7154854 28.3363459,41.8159395 28.3363459,43.1687611 C28.336173,44.5219286 27.2355459,45.6225557 25.8827243,45.6225557 Z M88.0552649,21.2248908 L71.6626162,4.83206919 C70.9869838,4.15643676 69.891373,4.15626378 69.2153946,4.83206919 C68.5397622,5.50752865 68.5397622,6.60313946 69.2153946,7.27929081 L84.3846054,22.4481557 L75.5155892,31.3171719 C75.2438486,31.5887395 74.8019027,31.5887395 74.5305081,31.3171719 L57.0169946,13.8038314 C56.7452541,13.5320908 56.7452541,13.0903178 57.0169946,12.8185773 L62.9691676,6.86588541 C63.6448,6.19042595 63.6448,5.09481514 62.9691676,4.41883676 C62.2933622,3.7433773 61.1980973,3.7433773 60.5219459,4.41883676 L54.569773,10.3711827 C53.3368216,11.6041341 53.0444973,13.4248476 53.6876108,14.9397449 L51.6745514,16.9526314 L43.9120432,16.9526314 L43.3002378,16.9526314 L37.5999135,16.9526314 L35.0603243,14.4132151 C35.1578811,14.0572368 35.209427,13.6865557 35.209427,13.3075719 C35.209427,12.1970854 34.7768216,11.1530205 33.9916973,10.3678962 L28.2003892,4.57658811 C27.5245838,3.90095568 26.4293189,3.90095568 25.7531676,4.57658811 C25.0775351,5.25204757 25.0775351,6.34783135 25.7531676,7.02380973 L31.5446486,12.8149449 C31.7221189,12.9924151 31.7487568,13.1999827 31.7487568,13.3075719 C31.7487568,13.4151611 31.7222919,13.6223827 31.5444757,13.8001989 L31.062573,14.2819286 L14.0256,31.3149232 C14.0200649,31.3202854 14.0153946,31.3265124 14.0100324,31.3320476 C13.8374054,31.4917016 13.6419459,31.5176476 13.5383351,31.5176476 C13.430573,31.5176476 13.2231784,31.4911827 13.0457081,31.3137124 L4.17721081,22.4446962 L19.5503568,7.07172324 C20.2259892,6.39626378 20.2259892,5.30065297 19.5503568,4.62467459 C18.8747243,3.94904216 17.7794595,3.94921514 17.1031351,4.62467459 L0.506724324,21.2214314 C-0.168908108,21.8968908 -0.168908108,22.9926746 0.506724324,23.66848 L10.5990054,33.7609341 C11.4097297,34.5713124 12.4742054,34.9764151 13.5386811,34.9764151 C14.0275027,34.9764151 14.5152865,34.8869881 14.979373,34.7157449 L20.6603243,40.3968692 C20.2192432,41.2241989 19.9684324,42.1674205 19.9684324,43.1685881 C19.9684324,46.4298205 22.6214919,49.08288 25.8825514,49.08288 C25.8898162,49.08288 25.8970811,49.0823611 25.9043459,49.0823611 L25.9043459,49.0833989 C25.9043459,52.3370205 28.5454703,54.9850638 31.7964973,54.9968259 C31.7964973,54.9995935 31.7963243,55.0020151 31.7963243,55.0044368 C31.7963243,58.2656692 34.4493838,60.9187286 37.7104432,60.9187286 C38.7136865,60.9187286 39.6589838,60.66688 40.4875243,60.2242422 L42.6024649,62.3391827 C43.5939459,63.3306638 44.9123459,63.8765665 46.3144649,63.8765665 C47.7167568,63.8765665 49.0351568,63.3306638 50.0264649,62.3391827 C50.9651892,61.4004584 51.5046919,60.1687178 51.5593514,58.8501449 C52.8381405,58.7863178 54.0982486,58.2673989 55.0726054,57.2930422 C56.1021405,56.263507 56.6580757,54.8944259 56.6381838,53.4386854 C56.6381838,53.4357449 56.6381838,53.4326314 56.6381838,53.4296908 C58.1433946,53.3362854 59.5283892,52.6763935 60.5523892,51.5607178 C61.5817514,50.439507 62.0911568,49.0256259 62.0868324,47.6150314 C63.5344432,47.5733449 64.8889946,46.99008 65.9173189,45.9617557 C66.9900973,44.8891503 67.5783784,43.4628151 67.5731892,41.9454962 C67.5702486,41.0524368 67.3606054,40.1929341 66.9695135,39.41888 L72.6447568,34.2296908 C73.3565405,34.7271611 74.1888865,34.9795286 75.0229622,34.9795286 C76.0874378,34.9795286 77.1520865,34.574253 77.9626378,33.7638746 L88.0549189,23.6715935 C88.7308973,22.9959611 88.7308973,21.9003503 88.0552649,21.2248908 Z" id="Fill-1"></path>
                    <path d="M75.8201773,21.5181492 C76.7739503,21.5181492 77.5469665,22.2913384 77.5469665,23.2449384 C77.5469665,24.1987114 76.7739503,24.9717276 75.8201773,24.9717276 C74.8664043,24.9717276 74.0933881,24.1987114 74.0933881,23.2449384 C74.0933881,22.2913384 74.8664043,21.5181492 75.8201773,21.5181492" id="Fill-3"></path>
                    <path d="M12.5653622,21.6911222 C13.5189622,21.6911222 14.2921514,22.4643114 14.2921514,23.4179114 C14.2921514,24.3716843 13.5189622,25.1447005 12.5653622,25.1447005 C11.6115892,25.1447005 10.838573,24.3716843 10.838573,23.4179114 C10.838573,22.4643114 11.6115892,21.6911222 12.5653622,21.6911222" id="Fill-5"></path>
                    <path d="M22.6704432,0.138516757 C23.6242162,0.138516757 24.3972324,0.911705946 24.3972324,1.86530595 C24.3972324,2.81907892 23.6242162,3.59209514 22.6704432,3.59209514 C21.7168432,3.59209514 20.9436541,2.81907892 20.9436541,1.86530595 C20.9436541,0.911705946 21.7168432,0.138516757 22.6704432,0.138516757" id="Fill-7"></path>
                    <path d="M65.8605492,-5.68434189e-14 C66.8143222,-5.68434189e-14 67.5873384,0.773189189 67.5873384,1.72678919 C67.5873384,2.68056216 66.8143222,3.45357838 65.8605492,3.45357838 C64.9067762,3.45357838 64.133933,2.68056216 64.133933,1.72678919 C64.133933,0.773189189 64.9067762,-5.68434189e-14 65.8605492,-5.68434189e-14" id="Fill-9"></path>
                </g>
            </g>
        </g>
    </g>
</svg>