<?xml version="1.0" encoding="UTF-8"?>
<svg width="44px" height="65px" viewBox="0 0 44 65" version="1.1" xmlns="http://www.w3.org/2000/svg" xmlns:xlink="http://www.w3.org/1999/xlink">
    <!-- Generator: Sketch 49.3 (51167) - http://www.bohemiancoding.com/sketch -->
    <title>Page 1</title>
    <desc>Created with Sketch.</desc>
    <defs>
        <polygon id="path-1" points="0 2.5390625e-05 43.812666 2.5390625e-05 43.812666 65 0 65"></polygon>
    </defs>
    <g id="Page-1" stroke="none" stroke-width="1" fill="none" fill-rule="evenodd">
        <g id="Desktop-HD-Copy" transform="translate(-150.000000, -1599.000000)">
            <g id="Group-12" transform="translate(0.000000, 1371.000000)">
                <g id="Group-4" transform="translate(150.000000, 228.000000)">
                    <g id="Page-1">
                        <mask id="mask-2" fill="white">
                            <use xlink:href="#path-1"></use>
                        </mask>
                        <g id="Clip-2"></g>
                        <path d="M18.2534473,58.6145371 L21.0094727,42.3311484 L22.7958301,42.3311484 L25.5518555,58.6145371 L21.9027148,62.6291758 L18.2534473,58.6145371 Z M17.1610156,39.0075156 L14.3618262,33.397457 L17.0650391,32.3504746 L20.5233691,36.6192734 C18.7646875,37.8681113 17.3205957,38.8941465 17.1610156,39.0075156 Z M14.6708301,20.8436973 L14.6708301,14.9033066 L14.6708301,14.5903672 C18.7809375,14.8310703 23.0901074,13.6100352 26.5712891,11.3806113 C27.9497461,12.8606309 28.6962305,13.6369492 28.9369336,13.9322422 L28.9369336,20.8435703 C28.9369336,24.7089121 25.7851953,27.8610313 21.9193457,27.8610313 C17.5783105,27.8611582 14.6708301,24.4935996 14.6708301,20.8436973 Z M12.8175684,13.951666 C12.5142773,13.9864512 12.1666797,14.0685898 11.9075684,14.1566953 L11.9075684,11.8006992 C11.9075684,6.34387305 16.3468652,1.90444922 21.8036914,1.90444922 C27.2605176,1.90444922 31.6998145,6.34387305 31.6998145,11.8006992 L31.6998145,14.0913145 C31.4230566,14.0071445 31.1360156,13.9515391 30.8413574,13.9253867 C30.8413574,13.006627 30.8493555,13.1838535 27.8437402,9.95251563 C27.2909863,9.35862891 26.3766699,9.23421484 25.6808398,9.68883398 C22.3635547,11.8557969 18.3169238,12.9444199 14.5832324,12.6762949 C13.7642578,12.6149766 13.0182813,13.1544004 12.8175684,13.951666 Z M12.7664062,20.0940391 C11.6596289,19.9144004 10.9255859,18.9993223 10.9255859,17.9687168 C10.9255859,16.9508066 11.7694434,16.1223105 12.7664062,15.8918906 L12.7664062,20.0940391 Z M32.6820508,17.9688437 C32.6819238,18.5925645 32.4117676,19.1827695 31.9407715,19.587877 C31.6293555,19.855748 31.2531934,20.0270078 30.8412305,20.0940391 L30.8412305,15.8440293 C31.9355664,16.0217637 32.6820508,16.9294785 32.6820508,17.9688437 Z M18.3188281,30.8649961 L18.3188281,29.083082 C19.475625,29.5493809 20.7118945,29.765582 21.9192188,29.765582 C23.1675488,29.765582 24.3917578,29.4994883 25.4805078,29.0234141 L25.4805078,30.8727402 L21.9028418,35.2888047 L18.3188281,30.8649961 Z M23.8158984,39.334293 L23.0899805,40.4269785 L20.7155762,40.4269785 L19.9896582,39.334293 L21.9028418,37.9755137 L23.8158984,39.334293 Z M29.4439844,33.397457 L26.6447949,39.0075156 C26.5752246,38.9581309 25.0917773,37.904166 23.2783789,36.6164805 C24.0652344,35.6451621 23.1446973,36.7812656 26.7359473,32.3486973 L29.4439844,33.397457 Z M42.8602637,52.6656406 C42.3344238,52.6656406 41.9081152,53.0919492 41.9081152,53.6177891 L41.9081152,62.5697617 C41.9081152,62.8595957 41.6722363,63.0954746 41.3824023,63.0954746 L36.2640332,63.0954746 L36.2640332,44.3448789 C36.2640332,43.8190391 35.8377246,43.3927305 35.3118848,43.3927305 C34.7860449,43.3927305 34.3597363,43.8190391 34.3597363,44.3448789 L34.3597363,63.0956016 L24.0530469,63.0956016 L27.0419043,59.8073887 C27.3684277,59.4481113 27.5224219,58.9364902 27.4537402,58.4380723 C27.4523438,58.4284238 27.4509473,58.4187754 27.4492969,58.409127 L24.602627,41.5920273 L25.3695508,40.4375156 C25.7935742,40.7385215 26.1202246,41.0286094 26.7327734,41.0286094 C27.3558594,41.0286094 27.9384473,40.6797422 28.2251074,40.1057871 L28.2251074,40.1056602 L31.2275488,34.088082 L38.0672754,36.736959 C38.314707,36.8430918 41.9078613,38.4612363 41.9078613,42.7339707 L41.9078613,49.1743027 C41.9077344,49.7000156 42.334043,50.1264512 42.8600098,50.1264512 C43.3858496,50.1264512 43.8121582,49.7001426 43.8121582,49.1743027 L43.8121582,42.7339707 C43.8121582,37.1042344 38.991875,35.0580039 38.7867188,34.9735801 C38.780752,34.971041 38.7746582,34.9686289 38.7685645,34.9663438 L27.3849316,30.5577695 L27.3849316,27.8879453 C29.192998,26.4818125 30.4466602,24.3973691 30.761377,22.0192832 C31.6628711,21.9558066 32.4993652,21.619127 33.1825,21.0317148 C34.0745996,20.2645371 34.5864746,19.1479844 34.5864746,17.9688438 C34.5864746,16.9902891 34.233418,16.0559141 33.6041113,15.3278379 L33.6041113,11.8006992 C33.6041113,5.29384375 28.3104199,2.5390625e-05 21.8035645,2.5390625e-05 C15.296709,2.5390625e-05 10.0030176,5.29384375 10.0030176,11.8006992 L10.0030176,15.4202598 C9.36710938,16.1409727 9.02128906,17.0281211 9.02128906,17.9687168 C9.02128906,19.1482383 9.53291016,20.2646641 10.4252637,21.0319687 C11.1078906,21.619127 11.943877,21.9554258 12.8451172,22.0190293 C13.162373,24.4416758 14.4525977,26.6038145 16.4146582,28.0288633 L16.4146582,30.5577695 L5.04333984,34.9662168 C5.03737305,34.968502 5.03140625,34.9709141 5.02543945,34.9733262 C4.82015625,35.05775 0,37.1039805 0,42.7337168 L0,62.5695078 C0,63.909498 1.09014648,64.9996445 2.43013672,64.9996445 L11.5018262,64.9996445 C12.027666,64.9996445 12.4539746,64.5733359 12.4539746,64.0474961 C12.4539746,63.5216562 12.027666,63.0953477 11.5018262,63.0953477 L9.45318359,63.0953477 L9.45318359,44.3448789 C9.45318359,43.8190391 9.026875,43.3927305 8.50103516,43.3927305 C7.97519531,43.3927305 7.54888672,43.8190391 7.54888672,44.3448789 L7.54888672,63.0956016 L2.43026367,63.0956016 C2.14042969,63.0956016 1.90455078,62.8595957 1.90455078,62.5698887 L1.90455078,42.7338437 C1.90455078,38.4467637 5.52182617,36.8323008 5.74399414,36.7373398 L12.5783887,34.0878281 L15.581084,40.1056602 C15.8683789,40.6811387 16.4517285,41.0286094 17.0735449,41.0286094 C17.6830469,41.0286094 18.0065234,40.7430918 18.4367676,40.4375156 L19.2036914,41.5920273 L16.3572754,58.4092539 C16.355625,58.4187754 16.3542285,58.4282969 16.352832,58.4378184 C16.2840234,58.9361094 16.4380176,59.4479844 16.764668,59.8075156 L19.7535254,63.0957285 L15.9455664,63.0957285 C15.4197266,63.0957285 14.993418,63.5220371 14.993418,64.047877 C14.993418,64.5735898 15.4197266,65.0000254 15.9455664,65.0000254 L41.3825293,65.0000254 C42.7225195,65.0000254 43.812666,63.909752 43.812666,62.5698887 L43.812666,53.617916 C43.8124121,53.0919492 43.3861035,52.6656406 42.8602637,52.6656406 Z" id="Fill-1" fill="#0A8A93" mask="url(#mask-2)"></path>
                    </g>
                </g>
            </g>
        </g>
    </g>
</svg>