<?xml version="1.0" encoding="UTF-8"?>
<svg width="65px" height="65px" viewBox="0 0 65 65" version="1.1" xmlns="http://www.w3.org/2000/svg" xmlns:xlink="http://www.w3.org/1999/xlink">
    <!-- Generator: Sketch 49.3 (51167) - http://www.bohemiancoding.com/sketch -->
    <title>Page 1</title>
    <desc>Created with Sketch.</desc>
    <defs>
        <polygon id="path-1" points="0.116212891 0.116466797 33.6424512 0.116466797 33.6424512 33.6425781 0.116212891 33.6425781"></polygon>
    </defs>
    <g id="Page-1" stroke="none" stroke-width="1" fill="none" fill-rule="evenodd">
        <g id="Desktop-HD-Copy" transform="translate(-670.000000, -1599.000000)">
            <g id="Group-12" transform="translate(0.000000, 1371.000000)">
                <g id="Group-10" transform="translate(670.000000, 228.000000)">
                    <g id="Page-1">
                        <path d="M33.3614023,40.2704199 C33.118541,39.7585449 32.5062461,39.5401855 31.9942441,39.7833008 C31.1611777,40.1786328 30.2877402,40.5054102 29.3983066,40.7542383 C29.026207,40.8583398 28.7442441,41.1623926 28.6685801,41.5413477 L27.582877,46.9696094 C27.4757285,47.5056055 27.0011777,47.8947168 26.4545176,47.8947168 L23.4928281,47.8947168 C22.946168,47.8947168 22.4717441,47.5057324 22.3644688,46.9696094 L21.2787656,41.5413477 C21.2029746,41.1623926 20.9208848,40.8583398 20.5490391,40.7542383 C19.292457,40.4025781 18.0798008,39.9000977 16.9447129,39.2607617 C16.6079063,39.0710938 16.1931504,39.086709 15.8717051,39.3010059 L11.265084,42.372002 C10.8103379,42.675166 10.1996934,42.6146094 9.81299414,42.2281641 L7.71877539,40.1338184 C7.33220313,39.7472461 7.27190039,39.1366016 7.5749375,38.6817285 L10.6459336,34.0751074 C10.8603574,33.7535352 10.8759727,33.3389063 10.6861777,33.0020996 C10.0467148,31.8668848 9.54423438,30.6541016 9.19270117,29.3977734 C9.08859961,29.0256738 8.78454688,28.7437109 8.4055918,28.6680469 L2.97733008,27.5823438 C2.44133398,27.4751953 2.05222266,27.0006445 2.05222266,26.4539844 L2.05222266,23.4922949 C2.05222266,22.9456348 2.44120703,22.4712109 2.97733008,22.3639355 L8.4055918,21.2782324 C8.78454688,21.2024414 9.08859961,20.9203516 9.19270117,20.5485059 C9.54436133,19.2919238 10.0468418,18.0792676 10.6861777,16.9441797 C10.8758457,16.6075 10.8602305,16.1927441 10.6459336,15.8711719 L7.57519141,11.2650586 C7.27202734,10.8101855 7.33245703,10.199668 7.7190293,9.81296875 L9.81324805,7.71875 C10.1998203,7.33217773 10.8105918,7.271875 11.2653379,7.57491211 L15.871959,10.6459082 C16.1934043,10.860332 16.6082871,10.8758203 16.9449668,10.6861523 C18.0800547,10.0468164 19.2927109,9.54433594 20.549293,9.19267578 C20.9213926,9.08857422 21.2033555,8.78452148 21.2790195,8.40556641 L22.3647227,2.97730469 C22.4718711,2.44130859 22.9464219,2.05219727 23.493082,2.05219727 L26.4547715,2.05219727 C27.0014316,2.05219727 27.4758555,2.44118164 27.5831309,2.97730469 L28.668834,8.40556641 C28.744625,8.78452148 29.0267148,9.08857422 29.3985605,9.19267578 C30.6551426,9.54433594 31.8677988,10.0468164 33.0028867,10.6861523 C33.3396934,10.8758203 33.7544492,10.8602051 34.0758945,10.6459082 L38.6825156,7.57491211 C39.1372617,7.27174805 39.7477793,7.33230469 40.1346055,7.71875 L42.2288242,9.81296875 C42.6153965,10.199541 42.6756992,10.8101855 42.3725352,11.2650586 L39.301666,15.8716797 C39.0872422,16.193252 39.071627,16.6078809 39.2614219,16.9446875 C39.9007578,18.0797754 40.4032383,19.2924316 40.7548984,20.5490137 C40.859,20.9211133 41.1630527,21.2030762 41.5420078,21.2787402 L46.9702695,22.3644434 C47.5062656,22.4715918 47.89525,22.9461426 47.89525,23.4928027 L47.89525,26.4544922 C47.89525,27.0011523 47.5063926,27.4755762 46.9702695,27.5828516 L41.5420078,28.6685547 C41.1630527,28.7443457 40.859,29.0264355 40.7548984,29.3985352 C40.4998496,30.3100586 40.1632969,31.2041895 39.7543809,32.0561719 C39.5092344,32.5671582 39.7248008,33.1802148 40.2356602,33.4253613 C40.7467734,33.6707617 41.359957,33.4550684 41.6049766,32.944082 C41.9739023,32.175127 42.2906504,31.3757031 42.5497617,30.5602832 L47.3728379,29.5956934 C48.8644102,29.2970996 49.9473203,27.9760254 49.9473203,26.4543652 L49.9473203,23.4926758 C49.9473203,21.9710156 48.8644102,20.6500684 47.3720762,20.3514746 L42.5492539,19.3868848 C42.2328867,18.3910645 41.8319688,17.4229199 41.3515781,16.4962891 L44.0800547,12.4034473 C44.9240391,11.1373437 44.7558262,9.43744141 43.6796445,8.36138672 L41.5855527,6.26716797 C40.5093711,5.19111328 38.8094688,5.02302734 37.5433652,5.86688477 L33.4506504,8.59536133 C32.5240195,8.11509766 31.555875,7.71405273 30.5600547,7.39768555 L29.5954648,2.57473633 C29.297252,1.08291016 27.9761777,0 26.4545176,0 L23.4928281,0 C21.971168,0 20.6502207,1.08291016 20.351627,2.57511719 L19.3870371,7.39806641 C18.3912168,7.71443359 17.4230723,8.11535156 16.4964414,8.59574219 L12.4038535,5.86726563 C11.137877,5.02328125 9.43784766,5.19136719 8.36179297,6.26754883 L6.26757422,8.36176758 C5.19164648,9.43782227 5.02330664,11.1375977 5.86729102,12.4038281 L8.59576758,16.4966699 C8.11550391,17.4233008 7.71445898,18.3913184 7.3980918,19.3872656 L2.57501563,20.3518555 C1.08293555,20.6501953 2.5390625e-05,21.9712695 2.5390625e-05,23.4929297 L2.5390625e-05,26.4546191 C2.5390625e-05,27.9762793 1.08293555,29.2972266 2.57514258,29.5958203 L7.3980918,30.5604102 C7.71433203,31.5561035 8.11537695,32.524248 8.59576758,33.4510059 L5.86729102,37.5438477 C5.02330664,38.8099512 5.19151953,40.5098535 6.26757422,41.5859082 L8.36179297,43.680127 C9.43784766,44.7561816 11.13775,44.9242676 12.4038535,44.0804102 L16.4966953,41.3519336 C17.4233262,41.8321973 18.3913438,42.2332422 19.387291,42.5496094 L20.3518809,47.3728125 C20.6502207,48.8645117 21.9712949,49.9475488 23.4929551,49.9475488 L26.4546445,49.9475488 C27.9763047,49.9475488 29.297252,48.8646387 29.5958457,47.3724316 L30.5604355,42.5494824 C31.3512266,42.2982422 32.127418,41.992666 32.8745371,41.637959 C33.3865391,41.3945898 33.6046445,40.7825488 33.3614023,40.2704199" id="Fill-1" fill="#0A8A93"></path>
                        <path d="M33.8633877,30.6764707 C34.0131924,30.7534043 34.1730264,30.7898398 34.3308291,30.7898398 C34.7035635,30.7898398 35.0632217,30.5860801 35.2448916,30.231627 C36.072499,28.617418 36.5102334,26.7993223 36.5102334,24.9738633 C36.5102334,18.612623 31.3349893,13.437252 24.9736221,13.437252 C21.9473135,13.437252 19.0875674,14.6003965 16.9209854,16.7127695 C16.5151162,17.1083555 16.5068643,17.7582285 16.9024502,18.1639707 C17.2980361,18.5697129 17.9477822,18.5782188 18.3536514,18.1825059 C20.1346768,16.4462949 22.4855947,15.489957 24.9733682,15.489957 C30.2028213,15.489957 34.4574014,19.7444102 34.4574014,24.9739902 C34.4574014,26.496666 34.1077725,27.9505332 33.41829,29.2952207 C33.1598135,29.7992246 33.358876,30.4177402 33.8633877,30.6764707" id="Fill-3" fill="#0A8A93"></path>
                        <path d="M15.3667871,20.5822754 C14.8306641,20.3978125 14.2469336,20.6828223 14.0624707,21.2188184 C13.6477148,22.4246191 13.4373535,23.6880566 13.4373535,24.9737109 C13.4373535,31.3350781 18.6127246,36.5103223 24.9739648,36.5103223 C27.4204785,36.5103223 29.7579395,35.7541895 31.7338379,34.3233008 C32.1929004,33.9908105 32.2956055,33.3490625 31.9632422,32.89 C31.6308789,32.4309375 30.9890039,32.3282324 30.5299414,32.6605957 C28.9064648,33.8360547 26.9852832,34.4574902 24.9738379,34.4574902 C19.7442578,34.4574902 15.4898047,30.2029102 15.4898047,24.973457 C15.4898047,23.9154297 15.6624609,22.8765723 16.0032031,21.8862109 C16.1875391,21.3503418 15.9026563,20.7664844 15.3667871,20.5822754" id="Fill-5" fill="#0A8A93"></path>
                        <g id="Group-9" transform="translate(31.357422, 31.357422)">
                            <mask id="mask-2" fill="white">
                                <use xlink:href="#path-1"></use>
                            </mask>
                            <g id="Clip-8"></g>
                            <path d="M31.6674922,13.4971992 L28.699709,12.9035664 C28.5188008,12.365793 28.3010762,11.8404609 28.0486934,11.3327754 L29.7279023,8.8142793 C30.3751094,7.84321484 30.246252,6.5392793 29.4209297,5.71408398 L28.0447578,4.33803906 C27.2194355,3.51284375 25.9155,3.38373242 24.9445625,4.03106641 L22.4260664,5.71014844 C21.9183809,5.45776562 21.3930488,5.24004102 20.8552754,5.05925977 L20.2616426,2.09147656 C20.0327461,0.947121094 19.0196602,0.116466797 17.8525801,0.116466797 L15.9062617,0.116466797 C14.7391816,0.116466797 13.7259688,0.947121094 13.4970723,2.09147656 L12.9034395,5.05925977 C12.365666,5.24016797 11.840334,5.45789258 11.3326484,5.71014844 L8.81415234,4.03106641 C7.84308789,3.38385937 6.53915234,3.5127168 5.71395703,4.33803906 L4.33791211,5.71408398 C3.51258984,6.53940625 3.38360547,7.8433418 4.03093945,8.8142793 L5.70989453,11.3327754 C5.36293164,12.0307637 5.08173047,12.7618867 4.87149609,13.5135762 C4.71877148,14.0594746 5.03742383,14.6256855 5.58319531,14.7785371 C6.1292207,14.9312617 6.69543164,14.6124824 6.8482832,14.066584 C7.0717207,13.2677949 7.39100781,12.4973164 7.79738477,11.7759688 C7.98705273,11.4392891 7.9714375,11.0244063 7.75701367,10.7029609 L5.7389668,7.67589063 C5.63245313,7.51605664 5.6536543,7.30137891 5.78949414,7.16566602 L7.16566602,5.78949414 C7.30137891,5.65378125 7.51605664,5.63270703 7.67589063,5.7389668 L10.7029609,7.75701367 C11.0244062,7.97156445 11.4392891,7.98705273 11.7759688,7.79738477 C12.4974434,7.39100781 13.2677949,7.0717207 14.066584,6.8482832 C14.4388105,6.74418164 14.7207734,6.44000195 14.7963105,6.06117383 L15.5097871,2.49417187 C15.5472383,2.30590039 15.7141816,2.16917187 15.9062617,2.16917187 L17.8525801,2.16917187 C18.0444063,2.16917187 18.2113496,2.30590039 18.2490547,2.49417187 L18.9624043,6.06142773 C19.0381953,6.44038281 19.3201582,6.74443555 19.6921309,6.84853711 C20.4909199,7.07197461 21.2613984,7.39126172 21.9827461,7.79751172 C22.3192988,7.98730664 22.7343086,7.97169141 23.0557539,7.75739453 L26.0829512,5.7392207 C26.2427852,5.63270703 26.4573359,5.65378125 26.5930488,5.78974805 L27.9692207,7.16591992 C28.1049336,7.30163281 28.1261348,7.51631055 28.019875,7.67601758 L26.0015742,10.7032148 C25.7872773,11.0247871 25.7716621,11.439543 25.961457,11.7762227 C26.367707,12.4976973 26.6871211,13.2680488 26.9104316,14.0668379 C27.0146602,14.4390645 27.3185859,14.7210273 27.697541,14.7965645 L31.264543,15.5099141 C31.4529414,15.5474922 31.5896699,15.7144355 31.5896699,15.9065156 L31.5896699,17.852834 C31.5896699,18.0446602 31.4529414,18.2116035 31.264543,18.2493086 L27.6974141,18.9626582 C27.318332,19.0383223 27.0144063,19.3204121 26.9101777,19.6923848 C26.6868672,20.4911738 26.3674531,21.2616523 25.9612031,21.983 C25.7715352,22.3196797 25.7871504,22.7345625 26.0013203,23.0560078 L28.0196211,26.0832051 C28.1260078,26.2429121 28.1049336,26.4575898 27.9689668,26.5933027 L26.5927949,27.9696016 C26.457209,28.1053145 26.2426582,28.1263887 26.0826973,28.0201289 L23.055373,26.0019551 C22.7340547,25.7876582 22.3190449,25.772043 21.9824922,25.9617109 C21.2610176,26.3679609 20.490666,26.687248 19.691877,26.9106855 C19.3196504,27.0149141 19.0378145,27.3189668 18.9621504,27.6977949 L18.2488008,31.2649238 C18.2112227,31.4530684 18.0442793,31.5899238 17.8523262,31.5899238 L15.9060078,31.5899238 C15.7140547,31.5899238 15.5471113,31.4530684 15.5095332,31.2649238 L14.7960566,27.697541 C14.7203926,27.3187129 14.4381758,27.0146602 14.0663301,26.9104316 C13.267541,26.6871211 12.4970625,26.367707 11.7757148,25.961457 C11.4389082,25.7717891 11.0241523,25.7874043 10.702707,26.0015742 L7.67563672,28.019875 C7.51580273,28.1262617 7.301125,28.1051875 7.16541211,27.9692207 L5.78911328,26.5930488 C5.65352734,26.4573359 5.63232617,26.2427852 5.73871289,26.0829512 L7.75675977,23.0557539 C7.97131055,22.7341816 7.98692578,22.3194258 7.79713086,21.9827461 C7.39075391,21.2612715 7.0714668,20.4909199 6.8480293,19.6921309 C6.74392773,19.3199043 6.43974805,19.0380684 6.06091992,18.9624043 L2.49379102,18.2490547 C2.30564648,18.2114766 2.16891797,18.0445332 2.16891797,17.8525801 L2.16891797,15.9062617 C2.16891797,15.7143086 2.30564648,15.5473652 2.49379102,15.5097871 L2.71227734,15.4661152 C3.26807812,15.3549043 3.628625,14.8142109 3.51728711,14.2584102 C3.40607617,13.7024824 2.86601758,13.3425703 2.30945508,13.4532734 L2.09096875,13.4970723 C0.946867188,13.7260957 0.116212891,14.7391816 0.116212891,15.9063887 L0.116212891,17.852707 C0.116212891,19.0196602 0.946867188,20.032873 2.09122266,20.2617695 L5.05900586,20.8554023 C5.23991406,21.3931758 5.45763867,21.9185078 5.70976758,22.4261934 L4.0308125,24.9446895 C3.38335156,25.9157539 3.51246289,27.2196895 4.33778516,28.0448848 L5.71383008,29.4210566 C6.53915234,30.2463789 7.84308789,30.3752363 8.81402539,29.7280293 L11.3325215,28.0489473 C11.840207,28.3012031 12.3655391,28.5189277 12.9033125,28.699709 L13.4969453,31.6674922 C13.7260957,32.8119746 14.7391816,33.6426289 15.9063887,33.6426289 L17.852707,33.6426289 C19.0196602,33.6426289 20.032873,32.8119746 20.2617695,31.6674922 L20.8554023,28.699709 C21.3931758,28.5188008 21.9185078,28.3010762 22.4261934,28.0486934 L24.9446895,29.7279023 C25.9157539,30.3751094 27.2196895,30.246252 28.0448848,29.4209297 L29.4210566,28.0447578 C30.2463789,27.2194355 30.3752363,25.9155 29.7280293,24.9445625 L28.0489473,22.4260664 C28.3012031,21.9183809 28.5189277,21.3930488 28.699709,20.8552754 L31.6674922,20.2616426 C32.8118477,20.0327461 33.642502,19.0196602 33.642502,17.8525801 L33.642502,15.9062617 C33.6426289,14.7391816 32.8119746,13.7260957 31.6674922,13.4971992" id="Fill-7" fill="#0A8A93" mask="url(#mask-2)"></path>
                        </g>
                        <path d="M48.2368555,44.5422021 C50.2741992,44.5422021 51.9315723,46.1995752 51.9315723,48.2369189 C51.9315723,48.8036377 52.3911426,49.263208 52.9578613,49.263208 C53.5245801,49.263208 53.9841504,48.8035107 53.9841504,48.2369189 C53.9841504,45.0677881 51.4058594,42.4893701 48.2367285,42.4893701 C45.0675977,42.4893701 42.4893066,45.0677881 42.4893066,48.2369189 C42.4893066,51.4059229 45.0675977,53.9843408 48.2367285,53.9843408 C49.5203516,53.9843408 50.7345313,53.5702197 51.748125,52.7871729 C52.1966504,52.4407178 52.2792969,51.7961768 51.9328418,51.3473975 C51.5862598,50.8988721 50.9415918,50.8162256 50.4930664,51.1626807 C49.8420508,51.665542 49.0617969,51.9315088 48.2367285,51.9315088 C46.1993848,51.9315088 44.5420117,50.2741357 44.5420117,48.2369189 C44.5421387,46.1994482 46.1995117,44.5422021 48.2368555,44.5422021" id="Fill-10" fill="#0A8A93"></path>
                        <path d="M20.7734541,24.9736855 C20.7734541,22.6578066 22.6578193,20.7734414 24.9736982,20.7734414 C27.2895771,20.7734414 29.1739424,22.6578066 29.1739424,24.9736855 C29.1739424,27.2895645 27.2897041,29.1739297 24.9736982,29.1739297 C22.6575654,29.1739297 20.7734541,27.2895645 20.7734541,24.9736855 M31.2265205,24.9736855 C31.2265205,21.5258926 28.4213643,18.7208633 24.9736982,18.7208633 C21.5259053,18.7208633 18.720876,21.5260195 18.720876,24.9736855 C18.720876,28.4214785 21.5259053,31.2265078 24.9736982,31.2265078 C28.4214912,31.2265078 31.2265205,28.4213516 31.2265205,24.9736855" id="Fill-12" fill="#0A8A93"></path>
                    </g>
                </g>
            </g>
        </g>
    </g>
</svg>