<?xml version="1.0" encoding="UTF-8"?>
<svg width="70px" height="65px" viewBox="0 0 70 65" version="1.1" xmlns="http://www.w3.org/2000/svg" xmlns:xlink="http://www.w3.org/1999/xlink">
    <!-- Generator: Sketch 49.3 (51167) - http://www.bohemiancoding.com/sketch -->
    <title>Page 1</title>
    <desc>Created with Sketch.</desc>
    <defs></defs>
    <g id="Page-1" stroke="none" stroke-width="1" fill="none" fill-rule="evenodd">
        <g id="Desktop-HD-Copy" transform="translate(-150.000000, -1472.000000)" fill="#0A8A93">
            <g id="Group-12" transform="translate(0.000000, 1371.000000)">
                <g id="Group-3" transform="translate(150.000000, 101.000000)">
                    <g id="Page-1">
                        <path d="M49.0171799,58.0541381 C48.3951925,57.8962615 47.765182,58.2768787 47.610841,58.8977782 L46.4504958,63.539295 C46.2938431,64.1623703 46.6732364,64.7912929 47.2952238,64.9468577 C47.3891883,64.9711987 47.4845126,64.9815335 47.5772531,64.9815335 C48.0971172,64.9815335 48.569387,64.6298808 48.7016987,64.1030816 L49.8620439,59.4617008 C50.0174728,58.8395774 49.6391674,58.2097029 49.0171799,58.0541381" id="Fill-1"></path>
                        <path d="M34.8117155,34.8116339 C34.9625209,34.8116339 35.1134623,34.7825335 35.2550209,34.7235167 L48.0193619,29.4413828 C48.6111611,29.196477 48.8919665,28.5176485 48.6471967,27.9258494 C48.4022908,27.3326904 47.7211506,27.0543326 47.1305753,27.2969268 L34.8117155,32.3954833 L2.32082636,18.9513619 L2.32082636,18.5661213 C2.32082636,17.9256402 1.80096234,17.4057762 1.16048117,17.4057762 C0.52,17.4057762 0,17.9256402 0,18.5661213 L0,19.7263305 C0,20.1962887 0.283117155,20.6200126 0.717175732,20.7986946 L34.368546,34.7233808 C34.5099686,34.7823975 34.66091,34.8116339 34.8117155,34.8116339" id="Fill-3"></path>
                        <path d="M48.6157437,46.6998075 C48.3326266,46.1252782 47.638704,45.8886674 47.061999,46.1730084 C44.8583902,47.2626423 41.1777312,48.5297343 35.9721559,48.702705 L35.9721559,38.2927782 C35.9721559,37.6522971 35.4522918,37.1324331 34.8118107,37.1324331 C34.1713295,37.1324331 33.6514655,37.6522971 33.6514655,38.2927782 L33.6514655,48.6920983 C19.2429508,48.2326109 14.5932751,39.5042531 13.9247814,38.051272 L13.9247814,30.17009 C13.9247814,29.5296088 13.4049174,29.0097448 12.7644362,29.0097448 C12.124091,29.0097448 11.604091,29.5296088 11.604091,30.17009 L11.604091,38.2927782 C11.604091,38.4401841 11.6319676,38.5863661 11.6864969,38.7243891 C11.888432,39.2268473 16.8270722,51.0569833 34.8119467,51.0569833 C41.097773,51.0569833 45.5026789,49.5322029 48.0904404,48.2534163 C48.6655136,47.9692113 48.9013086,47.2742008 48.6157437,46.6998075" id="Fill-5"></path>
                        <path d="M52.2175732,59.1797259 C51.5758682,59.1797259 51.057228,59.69959 51.057228,60.3400711 L51.057228,63.8213787 C51.057228,64.4618598 51.5758682,64.9815879 52.2175732,64.9815879 C52.8592782,64.9815879 53.3779184,64.4618598 53.3779184,63.8213787 L53.3779184,60.3400711 C53.3779184,59.69959 52.8592782,59.1797259 52.2175732,59.1797259" id="Fill-7"></path>
                        <path d="M52.2175732,55.6986088 C51.5770921,55.6986088 51.057228,55.1776569 51.057228,54.5382636 C51.057228,53.8988703 51.5770921,53.3779184 52.2175732,53.3779184 C52.8580544,53.3779184 53.3779184,53.8988703 53.3779184,54.5382636 C53.3779184,55.1775209 52.8580544,55.6986088 52.2175732,55.6986088 M34.8117155,16.2452406 C33.3949059,16.2452406 32.4908891,15.5582531 32.4908891,15.0848954 C32.4908891,14.6114017 33.3947699,13.9245502 34.8117155,13.9245502 C36.2286611,13.9245502 37.1325418,14.6115377 37.1325418,15.0848954 C37.1325418,15.5583891 36.2285251,16.2452406 34.8117155,16.2452406 M68.4630858,17.4057218 C67.8213808,17.4057218 67.3027406,17.9255858 67.3027406,18.5660669 L67.3027406,18.9489958 L53.3780544,24.6801464 L53.3780544,22.5832845 L68.9063912,16.1569874 C69.3403138,15.9783054 69.6235669,15.5547176 69.6235669,15.0847594 C69.6235669,14.6148013 69.3404498,14.1924372 68.9076151,14.0125314 L35.2550209,0.0879811715 C34.9706799,-0.0292364017 34.652751,-0.0292364017 34.368546,0.0879811715 L0.717175732,14.0126674 C0.283117155,14.1925732 0,14.6149372 0,15.0848954 C0,15.5548536 0.283117155,15.9784414 0.717175732,16.1571234 L34.368546,30.0818096 C34.5101046,30.1409623 34.66091,30.1700628 34.8118515,30.1700628 C34.9627929,30.1700628 35.1135983,30.1410983 35.2551569,30.0818096 L47.4230753,25.0468933 C48.0160983,24.8032113 48.2969038,24.1243828 48.0519979,23.5313598 C47.8070921,22.9395607 47.1282636,22.6598431 46.5364644,22.9035251 L34.8117155,27.7540481 L4.19481172,15.0848954 L34.8117155,2.41574268 L65.4286192,15.0848954 L52.1062029,20.5979289 L39.3453975,15.8333473 C39.4127092,15.591977 39.4533682,15.3436715 39.4533682,15.0848954 C39.4533682,13.1331276 37.4145711,11.6037238 34.8118515,11.6037238 C32.2091318,11.6037238 30.1703347,13.1331276 30.1703347,15.0848954 C30.1703347,17.0366632 32.2091318,18.5660669 34.8118515,18.5660669 C35.9734205,18.5660669 37.009613,18.2492259 37.8149059,17.7387448 L51.057228,22.6832322 L51.057228,26.4011506 L51.057228,26.4023745 L51.057228,51.2705858 C49.7100418,51.7522385 48.7364017,53.0274895 48.7364017,54.5383996 C48.7364017,56.4576674 50.2983054,58.0195711 52.2175732,58.0195711 C54.136841,58.0195711 55.6987448,56.4576674 55.6987448,54.5383996 C55.6987448,53.0276255 54.7252406,51.7523745 53.3779184,51.2705858 L53.3779184,44.6843724 C56.7093724,42.1697699 57.9034414,38.82091 57.955659,38.6724163 C57.9974059,38.5505753 58.0194351,38.4217992 58.0194351,38.293023 L58.0194351,30.1703347 C58.0194351,29.5298536 57.500795,29.0099895 56.85909,29.0099895 C56.2173849,29.0099895 55.6987448,29.5298536 55.6987448,30.1703347 L55.6987448,38.0784414 C55.4980335,38.5704289 54.8005753,40.0870502 53.3779184,41.583954 L53.3779184,27.1901255 L68.9051674,20.799864 C69.3403138,20.621182 69.623431,20.1965063 69.623431,19.7265481 L69.623431,18.5662029 C69.623431,17.9255858 69.1047908,17.4057218 68.4630858,17.4057218" id="Fill-9"></path>
                        <path d="M56.8242782,58.8977918 C56.6688494,58.2770282 56.0374791,57.897499 55.4179393,58.0541517 C54.7959519,58.2094446 54.4176464,58.839591 54.5732113,59.4615785 L55.7335565,64.1030952 C55.8658682,64.6298944 56.3381381,64.9815471 56.8580021,64.9815471 C56.9508787,64.9815471 57.045931,64.9712123 57.1400314,64.9467354 C57.7620188,64.7914425 58.1403243,64.1623839 57.9847594,63.5393086 L56.8242782,58.8977918 Z" id="Fill-11"></path>
                    </g>
                </g>
            </g>
        </g>
    </g>
</svg>