<?xml version="1.0" encoding="UTF-8"?>
<svg width="43px" height="43px" viewBox="0 0 43 43" version="1.1" xmlns="http://www.w3.org/2000/svg" xmlns:xlink="http://www.w3.org/1999/xlink">
    <!-- Generator: Sketch 49.3 (51167) - http://www.bohemiancoding.com/sketch -->
    <title>Group 22</title>
    <desc>Created with Sketch.</desc>
    <defs>
        <polygon id="path-1" points="0 0 13.9003333 0 13.9003333 15.9378167 0 15.9378167"></polygon>
    </defs>
    <g id="Page-1" stroke="none" stroke-width="1" fill="none" fill-rule="evenodd">
        <g id="Desktop-HD-Copy" transform="translate(-389.000000, -397.000000)">
            <g id="Group-22" transform="translate(389.000000, 397.000000)">
                <g id="Page-1">
                    <circle id="Oval" fill="#0A8A93" cx="21.5" cy="21.5" r="21.5"></circle>
                    <g transform="translate(15.000000, 14.000000)">
                        <mask id="mask-2" fill="white">
                            <use xlink:href="#path-1"></use>
                        </mask>
                        <g id="Clip-2"></g>
                        <path d="M12.5585583,5.55098333 C12.3241417,5.40481667 12.015725,5.47631667 11.8696417,5.71073333 C11.7235583,5.94515 11.7950583,6.25348333 12.0293917,6.39956667 C12.574725,6.73965 12.9003083,7.32631667 12.9003083,7.96898333 C12.9003083,8.61165 12.574725,9.19831667 12.0293917,9.5384 L3.827975,14.65215 C3.249475,15.0129 2.54814167,15.03065 1.951975,14.6999833 C1.35580833,14.3690667 0.999891667,13.7644833 0.999891667,13.0827333 L0.999891667,2.85515 C0.999891667,2.1734 1.35580833,1.56881667 1.951975,1.23798333 C2.54814167,0.907233333 3.249475,0.924983333 3.827975,1.28573333 L8.60230833,4.26265 C8.836725,4.40865 9.14505833,4.33723333 9.291225,4.1029 C9.43730833,3.86856667 9.36580833,3.56015 9.131475,3.41406667 L4.35714167,0.437233333 C3.46580833,-0.118516667 2.38539167,-0.1461 1.466725,0.36365 C0.548308333,0.873316667 -2.5e-05,1.80473333 -2.5e-05,2.85515 L-2.5e-05,13.08265 C-2.5e-05,14.1330667 0.548308333,15.0645667 1.46680833,15.57415 C1.90430833,15.8169 2.37839167,15.9378167 2.851475,15.9378167 C3.37155833,15.9378167 3.89039167,15.79165 4.35714167,15.5005667 L12.5585583,10.3868167 C13.398725,9.86298333 13.9003917,8.95906667 13.9003917,7.9689 C13.9003917,6.97873333 13.398725,6.0749 12.5585583,5.55098333" id="Fill-1" fill="#FFFFFF" mask="url(#mask-2)"></path>
                    </g>
                </g>
            </g>
        </g>
    </g>
</svg>