<?xml version="1.0" encoding="UTF-8"?>
<svg width="65px" height="65px" viewBox="0 0 65 65" version="1.1" xmlns="http://www.w3.org/2000/svg" xmlns:xlink="http://www.w3.org/1999/xlink">
    <!-- Generator: Sketch 49.3 (51167) - http://www.bohemiancoding.com/sketch -->
    <title>Page 1</title>
    <desc>Created with Sketch.</desc>
    <defs>
        <polygon id="path-1" points="0 64.8652703 64.8651351 64.8652703 64.8651351 0 0 0"></polygon>
    </defs>
    <g id="Page-1" stroke="none" stroke-width="1" fill="none" fill-rule="evenodd">
        <g id="Desktop-HD-Copy" transform="translate(-150.000000, -1725.000000)">
            <g id="Group-12" transform="translate(0.000000, 1371.000000)">
                <g id="Group-6" transform="translate(150.000000, 354.000000)">
                    <g id="Page-1">
                        <mask id="mask-2" fill="white">
                            <use xlink:href="#path-1"></use>
                        </mask>
                        <g id="Clip-4"></g>
                        <path d="M48.6489189,40.0004054 L45.4056757,40.0004054 L45.4056757,34.595 C45.4056757,34.035 44.9786486,33.5690541 44.4231081,33.5182432 L38.2294595,32.955 C37.2078378,32.862027 36.3116216,32.3095946 35.7689189,31.4382432 C35.2272973,30.5668919 35.1278378,29.5193243 35.4964865,28.5614865 L38.5808108,20.5409459 L54.0543243,20.5409459 L54.0543243,22.7031081 L44.3245946,22.7031081 C43.8089189,22.7031081 43.3656757,23.0674324 43.2651351,23.5722973 L42.1840541,28.9777027 C42.1267568,29.2652703 42.1883784,29.5625676 42.3537838,29.8047297 C42.5202703,30.0458108 42.7775676,30.207973 43.0662162,30.2566216 L47.7462162,31.0371622 C48.2683784,31.1225676 48.6489189,31.5712162 48.6489189,32.102027 L48.6489189,40.0004054 Z M36.2618919,34.6382432 C36.8121622,34.8902703 37.4078378,35.0522973 38.0327027,35.1095946 L39.3581081,35.2295946 L35.9159459,40.3928378 L31.3516216,44.9582432 L29.637027,43.2436486 L33.197027,39.6836486 C33.2597297,39.6209459 33.3139189,39.5517568 33.3591892,39.4760811 L36.2618919,34.6382432 Z M43.2435135,40.0004054 L42.1624324,40.0004054 C41.8564865,40.0004054 41.5635135,40.1301351 41.3591892,40.3582432 L31.9516216,50.8112162 L23.7840541,50.8112162 L23.7840541,42.9128378 C23.7840541,41.3193243 22.6435135,39.9744595 21.0737838,39.7139189 L17.5483784,39.1258108 L18.1418919,36.7571622 L22.702973,36.7571622 C22.8910811,36.7571622 23.0759459,36.7074324 23.2391892,36.6144595 L30.8067568,32.2901351 C30.822973,32.2804054 30.8327027,32.2631081 30.8489189,32.2533784 C30.8716216,32.2382432 30.8986486,32.2317568 30.9213514,32.2155405 L33.1797297,30.5128378 C33.2867568,31.2339189 33.5333784,31.9366216 33.9332432,32.5809459 C34.1051351,32.8578378 34.3051351,33.1074324 34.517027,33.3441892 L31.5743243,38.2490541 L27.3440541,42.4793243 C26.9213514,42.902027 26.9213514,43.5852703 27.3440541,44.007973 L30.5872973,47.2512162 C30.7981081,47.462027 31.0748649,47.567973 31.3516216,47.567973 C31.6283784,47.567973 31.9051351,47.462027 32.1159459,47.2512162 L37.5213514,41.8458108 C37.5721622,41.795 37.6175676,41.7398649 37.6564865,41.6814865 L41.8089189,35.4522973 L43.2435135,35.582027 L43.2435135,40.0004054 Z M21.6218919,50.8112162 L18.3786486,50.8112162 L18.3786486,45.4058108 C18.3786486,44.8458108 17.9516216,44.3798649 17.3959459,44.3290541 L11.2024324,43.7658108 C10.1808108,43.6728378 9.28459459,43.1204054 8.74189189,42.2490541 C8.20027027,41.3777027 8.10081081,40.3301351 8.46945946,39.3724324 L11.5537838,31.3517568 L15.0456757,31.3517568 L21.4445946,32.4177027 C21.6705405,32.4544595 21.9018919,32.4198649 22.1051351,32.3182432 L27.7375676,29.502027 L28.7278378,30.9874324 L22.4154054,34.595 L17.2975676,34.595 C16.8013514,34.595 16.37,34.9322973 16.2489189,35.4144595 L15.1678378,39.7387838 C15.0943243,40.0317568 15.1462162,40.3410811 15.3127027,40.5928378 C15.477027,40.8447297 15.7408108,41.0177027 16.0391892,41.0663514 L20.7191892,41.8468919 C21.2413514,41.9333784 21.6218919,42.382027 21.6218919,42.9128378 L21.6218919,50.8112162 Z M8.89,51.2036486 L4.32459459,55.7690541 L2.61,54.0544595 L6.17,50.4944595 C6.2327027,50.4317568 6.28675676,50.3625676 6.33216216,50.2868919 L9.23486486,45.4490541 C9.78513514,45.7010811 10.3808108,45.8631081 11.0056757,45.9204054 L12.3310811,46.0404054 L8.89,51.2036486 Z M9.73,24.8652703 C9.73,22.4804054 11.6694595,20.5409459 14.0543243,20.5409459 C16.4391892,20.5409459 18.3786486,22.4804054 18.3786486,24.8652703 C18.3786486,27.2501351 16.4391892,29.1895946 14.0543243,29.1895946 C11.6694595,29.1895946 9.73,27.2501351 9.73,24.8652703 Z M35.2327027,23.222027 L33.5883784,27.4966216 L30.5343243,29.7993243 L29.5289189,28.2912162 L35.2327027,23.222027 Z M36.757027,14.0544595 C36.757027,11.6695946 38.6964865,9.73013514 41.0813514,9.73013514 C43.4662162,9.73013514 45.4056757,11.6695946 45.4056757,14.0544595 C45.4056757,16.4393243 43.4662162,18.3787838 41.0813514,18.3787838 C38.6964865,18.3787838 36.757027,16.4393243 36.757027,14.0544595 Z M56.2164865,2.83067568 L61.3667568,5.40581081 L56.2164865,7.98094595 L56.2164865,2.83067568 Z M50.8110811,32.102027 C50.8110811,30.5085135 49.6706757,29.1636486 48.1008108,28.9031081 L44.5224324,28.3063514 L45.21,24.8652703 L54.0543243,24.8652703 L54.0543243,31.3517568 L56.2164865,31.3517568 L56.2164865,23.7841892 L56.2164865,19.4598649 L56.2164865,10.3982432 L64.2672973,6.3722973 C64.6337838,6.18959459 64.8651351,5.81554054 64.8651351,5.40581081 C64.8651351,4.99608108 64.6337838,4.62202703 64.2672973,4.43824324 L55.6186486,0.113918919 C55.2824324,-0.0525675676 54.8847297,-0.0363513514 54.5667568,0.161486486 C54.2489189,0.359324324 54.0543243,0.706351351 54.0543243,1.08148649 L54.0543243,9.73013514 L54.0543243,18.3787838 L45.902973,18.3787838 C46.9343243,17.2295946 47.5678378,15.7171622 47.5678378,14.0544595 C47.5678378,10.4771622 44.6586486,7.56797297 41.0813514,7.56797297 C37.5040541,7.56797297 34.5948649,10.4771622 34.5948649,14.0544595 C34.5948649,15.9960811 35.4564865,17.7366216 36.8121622,18.9258108 L27.4986486,27.2047297 L21.4521622,30.2274324 L18.3516216,29.7106757 C19.6910811,28.5214865 20.5408108,26.7928378 20.5408108,24.8652703 C20.5408108,21.287973 17.6316216,18.3787838 14.0543243,18.3787838 C10.477027,18.3787838 7.56783784,21.287973 7.56783784,24.8652703 C7.56783784,26.8382432 8.45648649,28.6058108 9.85108108,29.7960811 C9.83594595,29.8263514 9.81432432,29.8501351 9.80243243,29.8814865 L6.45108108,38.595 C5.83810811,40.1917568 6.00351351,41.94 6.90621622,43.3917568 C7.07810811,43.6686486 7.27810811,43.9182432 7.49,44.155 L4.5472973,49.0598649 L0.317027027,53.2901351 C-0.105675676,53.7128378 -0.105675676,54.3960811 0.317027027,54.8187838 L3.56027027,58.062027 C3.77108108,58.2728378 4.04783784,58.3787838 4.32459459,58.3787838 C4.60135135,58.3787838 4.87810811,58.2728378 5.08891892,58.062027 L10.4943243,52.6566216 C10.5451351,52.6058108 10.5905405,52.5506757 10.6294595,52.4922973 L14.7818919,46.2631081 L16.2164865,46.3928378 L16.2164865,50.8112162 L15.1354054,50.8112162 C14.5375676,50.8112162 14.0543243,51.2944595 14.0543243,51.8922973 L14.0543243,59.6804054 L0.838108108,62.7301351 C0.347297297,62.8436486 0.00027027027,63.2804054 0.00027027027,63.7841892 L1.42108547e-14,64.8652703 L2.16243243,64.8652703 L2.16243243,64.6447297 L15.3786486,61.595 C15.8694595,61.4814865 16.2164865,61.0448649 16.2164865,60.5409459 L16.2164865,52.9733784 L17.2975676,52.9733784 L22.702973,52.9733784 L32.4327027,52.9733784 C32.7386486,52.9733784 33.0316216,52.8436486 33.2359459,52.6156757 L42.6436486,42.1625676 L44.3245946,42.1625676 L49.73,42.1625676 L64.8651351,42.1625676 L64.8651351,40.0004054 L50.8110811,40.0004054 L50.8110811,32.102027 Z" id="Fill-7" fill="#0A8A93" mask="url(#mask-2)"></path>
                    </g>
                </g>
            </g>
        </g>
    </g>
</svg>