<?xml version="1.0" encoding="UTF-8"?>
<svg width="66px" height="65px" viewBox="0 0 66 65" version="1.1" xmlns="http://www.w3.org/2000/svg" xmlns:xlink="http://www.w3.org/1999/xlink">
    <!-- Generator: Sketch 49.3 (51167) - http://www.bohemiancoding.com/sketch -->
    <title>Page 1</title>
    <desc>Created with Sketch.</desc>
    <defs></defs>
    <g id="Page-1" stroke="none" stroke-width="1" fill="none" fill-rule="evenodd">
        <g id="Desktop-HD-Copy" transform="translate(-150.000000, -1852.000000)" fill="#0A8A93">
            <g id="Group-12" transform="translate(0.000000, 1371.000000)">
                <g id="Group-7" transform="translate(150.000000, 481.000000)">
                    <g id="Page-1">
                        <path d="M1.28216961,62.3099814 C1.99028725,62.3099814 2.56432647,62.8840206 2.56432647,63.5922657 C2.56432647,64.3002559 1.99028725,64.8742951 1.28216961,64.8742951 C0.574051961,64.8742951 1.2745098e-05,64.3002559 1.2745098e-05,63.5922657 C1.2745098e-05,62.8840206 0.574051961,62.3099814 1.28216961,62.3099814" id="Fill-1"></path>
                        <path d="M34.0300363,29.7949931 C34.736752,29.7949931 35.3096441,30.3678853 35.3096441,31.074601 C35.3096441,31.7813167 34.736752,32.3542088 34.0300363,32.3542088 C33.3233206,32.3542088 32.7504284,31.7813167 32.7504284,31.074601 C32.7504284,30.3678853 33.3233206,29.7949931 34.0300363,29.7949931" id="Fill-3"></path>
                        <path d="M48.9771431,20.7457186 C47.8513686,21.8713657 46.0195157,21.8713657 44.8939961,20.7457186 C43.7682216,19.6200716 43.7682216,17.7883461 44.8939961,16.6625716 C45.4393588,16.1172088 46.1643,15.8169343 46.9353784,15.8169343 C47.7067118,15.8169343 48.4316529,16.1172088 48.9770157,16.6625716 C50.1027902,17.7883461 50.1027902,19.6200716 48.9771431,20.7457186 M50.7864373,14.85315 C49.7579078,13.8243657 48.3902314,13.2579735 46.9353784,13.2579735 C45.4806529,13.2579735 44.1129765,13.8246206 43.0844471,14.85315 C40.9609863,16.9767382 40.9609863,20.4319343 43.0844471,22.5553951 C44.1463686,23.6171892 45.5406824,24.1478951 46.9353784,24.1478951 C48.3299471,24.1478951 49.724898,23.6169343 50.7864373,22.5553951 C52.909898,20.4318069 52.909898,16.9766108 50.7864373,14.85315" id="Fill-5"></path>
                        <path d="M15.9835255,52.2495745 C15.3508588,51.9345157 14.5828392,52.1920941 14.2677804,52.8246333 L12.7437216,55.8852412 C12.0809765,57.2160843 10.7480941,58.1059471 9.26481961,58.207398 L7.49223137,58.3287314 C7.19259412,58.3486137 6.9955549,58.1994961 6.90442745,58.1083686 C6.8133,58.0172412 6.66367255,57.8198196 6.68406471,57.5203098 L6.80539804,55.7479765 C6.90697647,54.2648294 7.79683922,52.9318196 9.12742745,52.2689471 L12.1880353,50.7448882 C12.820702,50.4299569 13.0781529,49.6616824 12.7630941,49.0291431 C12.4481627,48.3967314 11.6800157,48.1391529 11.047349,48.4542118 L7.98674118,49.9782706 C5.84658431,51.0440157 4.41556471,53.1876137 4.25217255,55.5731137 L4.13083922,57.3454471 C4.06532941,58.302349 4.41658431,59.2398784 5.09462353,59.9179176 C5.71887843,60.5420451 6.56324118,60.8896039 7.44010392,60.8896039 C7.51542745,60.8896039 7.59126078,60.8870549 7.66696667,60.881702 L9.4395549,60.7603686 C11.8249275,60.5972314 13.9686529,59.1663392 15.034398,57.0259275 L16.5584569,53.9653196 C16.8735157,53.3326529 16.6160647,52.5646333 15.9835255,52.2495745" id="Fill-7"></path>
                        <path d="M62.6648049,3.60518039 C62.1514324,14.0940137 57.0986382,23.8019549 48.8023441,30.2398863 L28.7339127,45.8129941 C27.0696578,44.8406706 25.518452,43.6923373 24.0987755,42.3914451 L30.8646382,35.6255824 C31.3642461,35.1259745 31.3642461,34.3156412 30.8646382,33.8160333 C30.3649029,33.316298 29.5546971,33.316298 29.0549618,33.8160333 L22.2954716,40.5753961 C21.0526971,39.1995627 19.9520304,37.702651 19.0148833,36.1013569 L35.4695696,15.843151 C41.7698539,8.08661176 51.1027069,3.27278824 61.0753637,2.63629804 L62.2667755,2.56033725 C62.4230304,2.55065098 62.5274127,2.62814118 62.5755892,2.67555294 C62.6237657,2.72283725 62.7030402,2.8256902 62.6953931,2.98258235 L62.6648049,3.60518039 Z M44.8467755,41.5719353 C44.8467755,46.7088471 42.8464324,51.5382196 39.213952,55.1707 L33.7320304,60.6526216 L32.9670696,45.7673667 L44.846648,36.5488373 L44.846648,41.5719353 L44.8467755,41.5719353 Z M23.5495892,47.4604255 C22.8816186,48.0176412 22.1968245,48.5892588 21.5613539,49.1118078 C20.3322167,48.4462588 19.2203343,47.6155333 18.248648,46.6358176 C17.30755,45.6868176 16.5065206,44.6065431 15.860599,43.4162784 L18.6232265,40.1365824 C19.4585402,41.2572588 20.3728735,42.318798 21.3606186,43.313298 C21.3613833,43.3140627 21.362148,43.3147 21.3629127,43.3154647 C21.3631676,43.3157196 21.3634225,43.3162294 21.3636775,43.3164843 C21.3640598,43.3167392 21.3644422,43.3169941 21.3648245,43.3173765 C22.4600108,44.4195725 23.6380402,45.4310235 24.8876971,46.3457392 C24.4464618,46.7120333 23.9943931,47.0892882 23.5495892,47.4604255 Z M4.22152059,31.1400725 L9.70344216,25.658151 C13.3313343,22.0302588 18.1538245,20.030298 23.2837265,20.0253275 L28.647501,20.1828569 L19.1256382,31.905798 L4.22152059,31.1400725 Z M64.3717559,0.852366667 C63.7713343,0.260866667 62.94405,-0.0484568627 62.1040206,0.00621960784 L60.9124814,0.0821803922 C50.2297951,0.764170588 40.2320304,5.9207098 33.4831186,14.229749 L30.6786873,17.6822686 L23.3396775,17.466749 C23.3271873,17.4663667 23.3145696,17.4662392 23.3022069,17.4662392 C17.4817755,17.4662392 12.0096676,19.7328275 7.89389314,23.8484745 L0.377089216,31.3654059 C0.0195892157,31.7229059 -0.0939696078,32.2575627 0.0875205882,32.7293863 C0.269010784,33.2013373 0.711265686,33.5222588 1.21622647,33.5480039 L17.1277167,34.3654745 L16.4789912,35.1643373 C16.1520794,35.5668275 16.1003343,36.1268471 16.3482265,36.5824843 C16.5975206,37.0406706 16.8587951,37.4917196 17.1312853,37.9355039 L13.3579716,42.4150235 C13.0353931,42.7980137 12.9659324,43.3340725 13.1799225,43.7867784 C14.004148,45.5283961 15.0980598,47.0932392 16.4317069,48.4378471 C17.7977265,49.8153373 19.3950696,50.9418765 21.1791284,51.7862392 C21.3534814,51.8687 21.540452,51.909102 21.7262755,51.909102 C22.0144422,51.909102 22.3001873,51.8117294 22.5326578,51.6232294 C23.3455402,50.963798 24.2826873,50.1816314 25.1891186,49.4253373 C25.8351676,48.8862196 26.4961284,48.3348667 27.1140108,47.8262098 C27.482599,48.0482294 27.8559029,48.2632392 28.2348147,48.4693275 C28.426501,48.5737098 28.6366676,48.6249451 28.8460696,48.6249451 C29.1246775,48.6249451 29.401501,48.5342 29.6306578,48.3564059 L30.5028049,47.6795137 L31.3238441,63.6580431 C31.3498441,64.1630039 31.6706382,64.6052588 32.1424618,64.7868765 C32.2918343,64.844102 32.4470696,64.8721412 32.6012853,64.8721412 C32.9345696,64.8721412 33.2619912,64.7417588 33.5064422,64.4971804 L41.0232461,56.9803765 C45.1390206,52.864602 47.4054814,47.3924941 47.4054814,41.5719353 L47.4054814,34.5627686 L50.3708833,32.2616412 C59.2580402,25.3652686 64.6703735,14.9660333 65.2205794,3.7302098 L65.2509127,3.10748431 C65.2924618,2.26579804 64.9719225,1.44399412 64.3717559,0.852366667 Z" id="Fill-9"></path>
                    </g>
                </g>
            </g>
        </g>
    </g>
</svg>