<?xml version="1.0" encoding="UTF-8"?>
<svg width="89px" height="65px" viewBox="0 0 89 65" version="1.1" xmlns="http://www.w3.org/2000/svg" xmlns:xlink="http://www.w3.org/1999/xlink">
    <!-- Generator: Sketch 49.3 (51167) - http://www.bohemiancoding.com/sketch -->
    <title>Group 5</title>
    <desc>Created with Sketch.</desc>
    <defs>
        <polygon id="path-1" points="3.44827586e-05 0.0475172414 88.2758621 0.0475172414 88.2758621 64.8275862 3.44827586e-05 64.8275862"></polygon>
    </defs>
    <g id="Page-1" stroke="none" stroke-width="1" fill="none" fill-rule="evenodd">
        <g id="Desktop-HD-Copy" transform="translate(-676.000000, -1726.000000)">
            <g id="Group-12" transform="translate(0.000000, 1371.000000)">
                <g id="Group-8" transform="translate(670.000000, 355.000000)">
                    <g id="Page-1" transform="translate(6.000000, 0.000000)">
                        <g id="Group-5" transform="translate(0.000000, 0.125000)">
                            <mask id="mask-2" fill="white">
                                <use xlink:href="#path-1"></use>
                            </mask>
                            <g id="Clip-4"></g>
                            <path d="M35.7564138,53.949069 L35.7564138,51.0071724 L35.8453793,51.0071724 L82.9253793,51.0071724 L82.9253793,53.949069 L35.7564138,53.949069 Z M31.6991724,34.599931 L20.6424483,34.599931 C18.4052069,34.599931 16.5852069,36.4201034 16.5852069,38.6573448 L16.5852069,48.4209655 L16.4962414,48.4209655 C14.9229655,48.4209655 13.6431379,47.1411379 13.6431379,45.5678621 L13.6431379,33.4923448 C13.6431379,32.224931 14.4941724,31.097 15.7124483,30.7487241 L20.3750345,29.4164828 C21.4895172,29.0980345 22.3879655,28.3383793 22.8877931,27.3373448 C23.9346897,27.4463103 25.0341724,27.5114828 26.1705517,27.5114828 C27.309,27.5114828 28.4103793,27.4459655 29.4591724,27.3366552 C29.9617586,28.3321724 30.8626207,29.1011379 31.9665862,29.4166552 L36.6293448,30.7488966 C37.8477931,31.097 38.6988276,32.2251034 38.6988276,33.4925172 L38.6988276,45.5680345 C38.6988276,47.1413103 37.419,48.4209655 35.8457241,48.4209655 L35.7567586,48.4209655 L35.7567586,38.6575172 C35.7564138,36.419931 33.9364138,34.599931 31.6991724,34.599931 Z M19.1712414,56.7132069 L19.1712414,38.6573448 C19.1712414,37.8461379 19.8312414,37.1861379 20.6422759,37.1861379 L31.699,37.1861379 C32.5102069,37.1861379 33.1700345,37.8463103 33.1700345,38.6573448 L33.1700345,56.7132069 L19.1712414,56.7132069 Z M5.35037931,53.949069 L16.5850345,53.949069 L16.5850345,51.0071724 L5.35037931,51.0071724 L5.35037931,53.949069 Z M15.5083103,23.0316552 C15.4817586,23.0223448 15.4679655,23.0026897 15.4608966,22.9878621 C15.4500345,22.9647586 15.4546897,22.9518276 15.4567586,22.9463103 C16.6765862,19.5732069 17.5934828,13.9711379 17.7862414,11.2244138 C17.9517586,8.86751724 18.8817586,6.69596552 20.4046897,5.10975862 C21.9600345,3.48993103 23.954,2.63406897 26.171069,2.63406897 C28.3876207,2.63406897 30.3812414,3.48993103 31.9365862,5.10975862 C33.4595172,6.69596552 34.3895172,8.86734483 34.5550345,11.2244138 C34.7479655,13.9714828 35.6648621,19.5735517 36.8845172,22.9463103 C36.8865862,22.9516552 36.8912414,22.9647586 36.8802069,22.9878621 C36.8733103,23.0025172 36.8593448,23.0223448 36.8329655,23.0316552 C34.8538276,23.7388966 30.836931,24.9252759 26.1703793,24.9252759 C21.5036552,24.9252759 17.4872759,23.7387241 15.5083103,23.0316552 Z M49.5772759,37.2751034 C49.5772759,37.2261379 49.6171034,37.1861379 49.6662414,37.1861379 L66.2514138,37.1861379 C66.3005517,37.1861379 66.3403793,37.2261379 66.3403793,37.2751034 L66.3403793,48.3318276 C66.3403793,48.3809655 66.3005517,48.4209655 66.2514138,48.4209655 L49.6662414,48.4209655 C49.6171034,48.4209655 49.5772759,48.3809655 49.5772759,48.3318276 L49.5772759,37.2751034 Z M52.3414138,33.4923448 C52.3415862,32.224931 53.1924483,31.097 54.4108966,30.7487241 L59.0736552,29.4164828 C59.4781379,29.3009655 59.8527931,29.1226897 60.1917586,28.8978621 L61.0229655,29.729069 C62.0502069,30.7564828 63.4164138,31.3225172 64.8693448,31.3225172 C66.3222759,31.3225172 67.6883103,30.7564828 68.7155517,29.729069 L69.5467586,28.8980345 C69.8855517,29.1228621 70.2602069,29.3011379 70.6648621,29.4164828 L75.3276207,30.7487241 C76.546069,31.097 77.3971034,32.224931 77.3971034,33.4923448 L77.3971034,45.5678621 C77.3971034,47.1411379 76.1172759,48.4209655 74.544,48.4209655 L68.9221034,48.4209655 C68.9231379,48.3911379 68.9265862,48.362 68.9265862,48.332 L68.9265862,45.4787241 L73.1617586,45.4787241 C73.8758966,45.4787241 74.4548621,44.899931 74.4548621,44.1856207 L74.4548621,35.8930345 C74.4548621,35.179069 73.8758966,34.599931 73.1617586,34.599931 C72.4476207,34.599931 71.8686552,35.179069 71.8686552,35.8930345 L71.8686552,42.8925172 L68.9265862,42.8925172 L68.9265862,37.2751034 C68.9265862,35.799931 67.7265862,34.599931 66.2514138,34.599931 L52.3414138,34.599931 L52.3414138,33.4923448 Z M67.9474483,26.8397586 L66.8867586,27.9004483 C66.3479655,28.4392414 65.6314138,28.7363103 64.8691724,28.7363103 C64.1071034,28.7363103 63.3905517,28.4392414 62.8517586,27.9004483 L61.7907241,26.8395862 C61.9200345,26.4683793 61.9938276,26.0752759 62.0096897,25.6707931 C62.8252069,25.939069 63.6853793,26.0982069 64.5755517,26.1251034 C64.6750345,26.1282069 64.774,26.1294138 64.8729655,26.1294138 C65.8565862,26.1294138 66.8165862,25.9804483 67.7300345,25.6963103 C67.7474483,26.0916552 67.821069,26.4763103 67.9474483,26.8397586 Z M57.8696897,16.1959655 L57.8696897,13.7795862 C57.8696897,13.5787241 57.8231379,13.3807931 57.7331379,13.2013103 L56.9348621,11.6042414 C56.6424483,11.019069 56.4877931,10.3642414 56.4877931,9.71027586 L56.4877931,9.63303448 C56.4877931,6.53562069 59.0077931,4.01562069 62.1052069,4.01562069 L73.251069,4.01562069 L73.251069,9.38372414 C73.251069,10.2513103 73.046069,11.119931 72.6581379,11.8959655 L72.0055517,13.2011379 C71.9157241,13.3807931 71.869,13.5785517 71.869,13.7794138 L71.869,16.5433793 C71.869,18.4530345 71.1141724,20.2368276 69.7434828,21.5671724 C68.3734828,22.8966552 66.5641724,23.597 64.6533103,23.5395862 C60.9127931,23.4278621 57.8696897,20.1330345 57.8696897,16.1959655 Z M86.9827931,48.4209655 L79.1724483,48.4209655 C79.686069,47.5907931 79.9833103,46.6133793 79.9833103,45.5678621 L79.9833103,33.4923448 C79.9833103,31.0764828 78.3608966,28.9257931 76.0381379,28.2623448 L71.3750345,26.9301034 C70.746931,26.7506207 70.3083103,26.1688966 70.3084828,25.5152759 L70.3086552,24.4368276 C70.7427931,24.1357931 71.1571034,23.799069 71.5443448,23.4232069 C73.4212414,21.6018276 74.4548621,19.1585517 74.4548621,16.5437241 L74.4548621,14.084931 L74.9708966,13.0526897 C75.5376207,11.9195862 75.836931,10.6509655 75.836931,9.38389655 L75.836931,2.72268966 C75.836931,2.00872414 75.2579655,1.42958621 74.5438276,1.42958621 L62.1048621,1.42958621 C57.5812414,1.42958621 53.9012414,5.10975862 53.9012414,9.6332069 L53.9012414,9.71044828 C53.9012414,10.7635517 54.1502069,11.8187241 54.6214138,12.7609655 L55.2831379,14.084931 L55.2831379,16.1959655 C55.2831379,19.5418276 56.9321034,22.5442414 59.4295172,24.3509655 L59.4295172,25.5154483 C59.4295172,26.1688966 58.9907241,26.7506207 58.3626207,26.9301034 L53.7000345,28.2623448 C51.3772759,28.9257931 49.7550345,31.0766552 49.7550345,33.4925172 L49.7550345,34.599931 L49.666069,34.599931 C48.1908966,34.599931 46.9908966,35.799931 46.9908966,37.2751034 L46.9908966,48.332 C46.9908966,48.362 46.9943448,48.3911379 46.9953793,48.4209655 L40.4736552,48.4209655 C40.9872759,47.5907931 41.2845172,46.6133793 41.2845172,45.5678621 L41.2845172,33.4923448 C41.2845172,31.0764828 39.6621034,28.9257931 37.3393448,28.2623448 L32.6764138,26.9301034 C32.6258966,26.9157931 32.5781379,26.8957931 32.5300345,26.8764828 C34.7424483,26.4452759 36.5458966,25.8804483 37.7027931,25.4668276 C38.3757241,25.2263103 38.9145172,24.7375172 39.2195172,24.089931 C39.5217586,23.4483793 39.5562414,22.7297586 39.3164138,22.0664828 C38.1765862,18.9145862 37.316931,13.6395862 37.1346897,11.0430345 C36.6946897,4.77441379 31.981069,0.0473448276 26.1707241,0.0475172414 C20.3600345,0.0475172414 15.6462414,4.77458621 15.2062414,11.0430345 C15.0238276,13.6392414 14.1643448,18.9142414 13.0243448,22.0664828 C12.7845172,22.7295862 12.819,23.4482069 13.1212414,24.0897586 C13.4264138,24.7371724 13.9648621,25.2263103 14.6377931,25.4666552 C15.7946897,25.8801034 17.5984828,26.4451034 19.8112414,26.8764828 C19.7631379,26.8956207 19.7148621,26.9152759 19.6641724,26.9297586 L15.0015862,28.262 C12.6788276,28.9254483 11.0565862,31.0761379 11.0565862,33.492 L11.0565862,45.5675172 C11.0565862,46.6130345 11.354,47.5904483 11.8674483,48.4206207 L1.29313793,48.4206207 C0.579,48.4206207 3.44827586e-05,48.9994138 3.44827586e-05,49.7137241 C3.44827586e-05,50.4276897 0.579,51.0068276 1.29313793,51.0068276 L2.76417241,51.0068276 L2.76417241,63.5345862 C2.76417241,64.2485517 3.34313793,64.8276897 4.05727586,64.8276897 C4.77141379,64.8276897 5.35037931,64.2485517 5.35037931,63.5345862 L5.35037931,56.534931 L16.5850345,56.534931 L16.5850345,63.5345862 C16.5850345,64.2485517 17.164,64.8276897 17.8781379,64.8276897 C18.5922759,64.8276897 19.1712414,64.2485517 19.1712414,63.5345862 L19.1712414,59.2992414 L33.1702069,59.2992414 L33.1702069,63.5345862 C33.1702069,64.2485517 33.7491724,64.8276897 34.4633103,64.8276897 C35.1774483,64.8276897 35.7564138,64.2485517 35.7564138,63.5345862 L35.7564138,56.534931 L82.9255517,56.534931 L82.9255517,63.5345862 C82.9255517,64.2485517 83.5045172,64.8276897 84.2186552,64.8276897 C84.9327931,64.8276897 85.5117586,64.2485517 85.5117586,63.5345862 L85.5117586,51.0068276 L86.9827931,51.0068276 C87.6967586,51.0068276 88.2758966,50.4276897 88.2758966,49.7137241 C88.2758966,48.9992414 87.6967586,48.4209655 86.9827931,48.4209655 Z" id="Fill-3" fill="#0A8A93" mask="url(#mask-2)"></path>
                        </g>
                    </g>
                </g>
            </g>
        </g>
    </g>
</svg>